<svg xmlns="http://www.w3.org/2000/svg" width="178" height="45" viewBox="0 0 178 45">
    <g fill="none" fill-rule="evenodd">
        <g>
            <circle cx="22.5" cy="22.5" r="22.5" fill="#404040"/>
            <g transform="translate(12.46 4.234)">
                <rect width="16.508" height="8.961" x="1.266" y="23.45" fill="#29DF7B" rx="4.481" transform="rotate(-35 9.52 27.93)"/>
                <rect width="16.508" height="8.961" x="1.36" y="3.924" fill="#29DF7B" rx="4.481" transform="rotate(-35 9.614 8.405)"/>
                <path fill="#32FC8D" d="M6.037 5.471c-4.227 2.17-6.2 5.157-5.916 8.961.754 10 19.526 6.226 13.866 15.754 1.085-.66 7.971-3.82 5.377-11.131-.377-.755-.99-3.35-7.688-5.424C5.167 11.65 3.288 8.93 6.037 5.47z"/>
            </g>
        </g>
        <path fill="#404040" d="M62 34.592c-1.313-.48-2.566-1.26-3.762-2.338-.492-.422-.738-.902-.738-1.441 0-.422.164-.803.492-1.143.328-.34.715-.51 1.16-.51.399 0 .739.13 1.02.387.937.867 1.904 1.506 2.9 1.916.996.41 2.127.615 3.393.615 1.476 0 2.724-.34 3.744-1.02 1.02-.68 1.53-1.535 1.53-2.566-.024-1.219-.534-2.162-1.53-2.83-.996-.668-2.514-1.224-4.553-1.67-2.414-.492-4.271-1.3-5.572-2.426-1.3-1.125-1.951-2.683-1.951-4.675 0-1.383.363-2.596 1.09-3.639.726-1.043 1.734-1.846 3.023-2.408 1.29-.563 2.742-.844 4.36-.844 1.453 0 2.824.234 4.113.703 1.289.469 2.332 1.09 3.129 1.863.539.47.808.973.808 1.512 0 .422-.158.797-.474 1.125a1.53 1.53 0 0 1-1.143.492c-.328 0-.598-.093-.809-.28-.609-.61-1.453-1.126-2.53-1.548-1.079-.422-2.11-.633-3.095-.633-1.57 0-2.818.323-3.744.967-.925.645-1.388 1.494-1.388 2.549 0 1.148.463 2.027 1.388 2.637.926.61 2.303 1.125 4.131 1.547 1.828.398 3.322.867 4.483 1.406 1.16.539 2.056 1.289 2.69 2.25.632.96.948 2.215.948 3.762 0 1.359-.38 2.566-1.142 3.62-.762 1.055-1.8 1.876-3.112 2.462-1.312.586-2.754.879-4.324.879-1.71 0-3.222-.24-4.535-.721zm29.76-17.596c1.23.586 1.845 1.336 1.845 2.25 0 .399-.128.756-.386 1.072a1.215 1.215 0 0 1-.985.475c-.304 0-.545-.047-.72-.14a7.932 7.932 0 0 1-.721-.458c-.14-.14-.363-.304-.668-.492-.281-.14-.68-.258-1.195-.351a7.922 7.922 0 0 0-1.407-.141c-1.218 0-2.296.281-3.234.844a5.75 5.75 0 0 0-2.18 2.338c-.515.996-.773 2.103-.773 3.322 0 1.242.252 2.355.756 3.34a5.732 5.732 0 0 0 2.127 2.32c.914.563 1.957.844 3.129.844 1.218 0 2.203-.188 2.953-.563.164-.094.386-.246.668-.457.234-.187.44-.328.615-.422.176-.093.393-.14.65-.14.47 0 .838.146 1.108.44.27.292.404.673.404 1.142 0 .492-.31.978-.932 1.459-.62.48-1.453.873-2.496 1.177a11.922 11.922 0 0 1-3.357.458c-1.781 0-3.352-.417-4.711-1.249-1.36-.832-2.408-1.98-3.146-3.445-.739-1.465-1.108-3.1-1.108-4.904 0-1.805.387-3.44 1.16-4.904.774-1.465 1.852-2.614 3.235-3.446 1.382-.832 2.964-1.248 4.746-1.248 1.851 0 3.392.293 4.623.88zm8.12 17.473c-.316.328-.72.492-1.212.492a1.57 1.57 0 0 1-1.178-.492 1.658 1.658 0 0 1-.474-1.196V18.051c0-.469.158-.867.474-1.196a1.57 1.57 0 0 1 1.178-.492c.492 0 .896.164 1.213.492.316.329.474.727.474 1.196v15.222c0 .47-.158.868-.474 1.196zM97.21 13.674c-.293-.246-.44-.639-.44-1.178v-.562c0-.563.159-.961.475-1.196.317-.234.803-.351 1.46-.351.655 0 1.13.123 1.423.369.293.246.44.639.44 1.178v.562c0 .563-.153.961-.458 1.195-.304.235-.785.352-1.441.352-.68 0-1.166-.123-1.459-.37zm18.72 2.918c.446.316.669.709.669 1.178 0 .562-.147.99-.44 1.283-.293.293-.65.44-1.072.44-.211 0-.527-.071-.95-.212-.491-.164-.878-.246-1.16-.246-.726 0-1.435.252-2.126.756-.692.504-1.254 1.195-1.688 2.074-.433.88-.65 1.858-.65 2.936v8.472c0 .47-.158.868-.475 1.196-.316.328-.72.492-1.213.492-.492 0-.89-.158-1.195-.475-.305-.316-.457-.72-.457-1.213V18.227c0-.47.158-.868.474-1.196a1.57 1.57 0 0 1 1.178-.492c.492 0 .897.164 1.213.492.317.328.475.727.475 1.196v1.793a6.655 6.655 0 0 1 2.32-2.795c1.031-.715 2.203-1.084 3.516-1.108.609 0 1.136.158 1.582.475zm19.917.351c.316.317.474.733.474 1.248v22.114c0 .468-.158.867-.474 1.195-.317.328-.721.492-1.213.492-.492 0-.89-.158-1.196-.474-.304-.317-.457-.721-.457-1.213v-8.016c-.585.844-1.412 1.559-2.478 2.145a7.008 7.008 0 0 1-3.428.879c-1.594 0-3.035-.41-4.324-1.231-1.29-.82-2.309-1.963-3.059-3.428-.75-1.465-1.125-3.111-1.125-4.94 0-1.827.37-3.474 1.108-4.939.738-1.464 1.752-2.607 3.04-3.427a7.765 7.765 0 0 1 4.255-1.23c1.242 0 2.39.257 3.445.773 1.055.515 1.91 1.183 2.566 2.004v-.704c0-.492.153-.902.458-1.23.304-.328.703-.492 1.195-.492.492 0 .896.158 1.213.474zm-5.45 14.432c.856-.563 1.524-1.336 2.004-2.32.48-.985.721-2.098.721-3.34 0-1.219-.24-2.326-.72-3.322-.481-.997-1.149-1.776-2.005-2.338-.855-.563-1.833-.844-2.935-.844s-2.08.281-2.936.844c-.855.562-1.523 1.341-2.004 2.338-.48.996-.72 2.103-.72 3.322 0 1.242.24 2.355.72 3.34.481.984 1.149 1.757 2.004 2.32.856.563 1.834.844 2.936.844 1.102 0 2.08-.281 2.935-.844zm25.805-14.344c.317.328.475.727.475 1.196v9.351c0 2.438-.674 4.33-2.022 5.678-1.347 1.348-3.252 2.021-5.713 2.021-2.437 0-4.324-.673-5.66-2.021-1.336-1.348-2.004-3.24-2.004-5.678v-9.351c0-.47.159-.868.475-1.196a1.57 1.57 0 0 1 1.178-.492c.492 0 .896.164 1.213.492.316.328.474.727.474 1.196v9.351c0 3.07 1.442 4.606 4.324 4.606 1.43 0 2.52-.387 3.27-1.16.75-.774 1.125-1.922 1.125-3.446v-9.351c0-.47.158-.868.475-1.196a1.57 1.57 0 0 1 1.177-.492c.492 0 .897.164 1.213.492zm21.112 9.088c-.329.293-.715.44-1.16.44h-12.376c.164 1.71.815 3.082 1.952 4.113 1.136 1.031 2.525 1.547 4.166 1.547 1.125 0 2.039-.164 2.742-.492a6.885 6.885 0 0 0 1.863-1.266c.352-.211.691-.316 1.02-.316.398 0 .732.14 1.001.421.27.282.405.61.405.985 0 .492-.235.937-.703 1.336-.68.68-1.582 1.254-2.707 1.722a8.881 8.881 0 0 1-3.446.703c-1.898 0-3.568-.398-5.01-1.195a8.33 8.33 0 0 1-3.34-3.34c-.784-1.43-1.177-3.047-1.177-4.851 0-1.969.404-3.697 1.213-5.186.808-1.488 1.875-2.63 3.2-3.427a8.141 8.141 0 0 1 4.27-1.196c1.5 0 2.907.387 4.22 1.16 1.312.774 2.366 1.84 3.163 3.2.797 1.359 1.207 2.882 1.23 4.57-.023.422-.198.78-.526 1.072zm-11.497-5.8c-.96.738-1.593 1.88-1.898 3.427h10.371v-.281c-.117-1.242-.674-2.262-1.67-3.059a5.285 5.285 0 0 0-3.392-1.195c-1.313 0-2.45.37-3.41 1.107z"/>
    </g>
</svg>
